<svg width="13" height="14" viewBox="0 0 13 14" fill="none" xmlns="http://www.w3.org/2000/svg">
<path d="M5.5 2H7.5C7.5 1.44772 7.05228 1 6.5 1C5.94772 1 5.5 1.44772 5.5 2ZM4.5 2C4.5 0.89543 5.39543 0 6.5 0C7.60457 0 8.5 0.89543 8.5 2H12.5C12.7761 2 13 2.22386 13 2.5C13 2.77614 12.7761 3 12.5 3H11.9364L10.7313 11.8378C10.5624 13.0765 9.5044 14 8.25422 14H4.74578C3.49561 14 2.43762 13.0765 2.26871 11.8378L1.06355 3H0.5C0.223858 3 0 2.77614 0 2.5C0 2.22386 0.223858 2 0.5 2H4.5ZM5.5 5.5C5.5 5.22386 5.27614 5 5 5C4.72386 5 4.5 5.22386 4.5 5.5V10.5C4.5 10.7761 4.72386 11 5 11C5.27614 11 5.5 10.7761 5.5 10.5V5.5ZM8 5C8.27614 5 8.5 5.22386 8.5 5.5V10.5C8.5 10.7761 8.27614 11 8 11C7.72386 11 7.5 10.7761 7.5 10.5V5.5C7.5 5.22386 7.72386 5 8 5ZM3.25954 11.7027C3.36089 12.4459 3.99568 13 4.74578 13H8.25422C9.00432 13 9.63911 12.4459 9.74046 11.7027L10.9272 3H2.07281L3.25954 11.7027Z" fill="#212121"/>
</svg>
