<svg width="15" height="14" viewBox="0 0 15 14" fill="none" xmlns="http://www.w3.org/2000/svg">
<path d="M7.49219 0C7.6276 0 7.74479 0.0494792 7.84375 0.148438C7.94271 0.247396 7.99219 0.364583 7.99219 0.5V6.5H13.9922C14.1276 6.5 14.2448 6.54948 14.3438 6.64844C14.4427 6.7474 14.4922 6.86458 14.4922 7C14.4922 7.13542 14.4427 7.2526 14.3438 7.35156C14.2448 7.45052 14.1276 7.5 13.9922 7.5H7.99219V13.5C7.99219 13.6354 7.94271 13.7526 7.84375 13.8516C7.74479 13.9505 7.6276 14 7.49219 14C7.35677 14 7.23958 13.9505 7.14062 13.8516C7.04167 13.7526 6.99219 13.6354 6.99219 13.5V7.5H0.992188C0.856771 7.5 0.739583 7.45052 0.640625 7.35156C0.541667 7.2526 0.492188 7.13542 0.492188 7C0.492188 6.86458 0.541667 6.7474 0.640625 6.64844C0.739583 6.54948 0.856771 6.5 0.992188 6.5H6.99219V0.5C6.99219 0.364583 7.04167 0.247396 7.14062 0.148438C7.23958 0.0494792 7.35677 0 7.49219 0Z" fill="black"/>
</svg>
